<svg xmlns="http://www.w3.org/2000/svg" width="24.746" height="21.733" viewBox="0 0 24.746 21.733"><g transform="translate(0.5 0.5)"><path d="M50.241,37.738H47.6v-6.86a.528.528,0,0,0-.528-.528H43.909a.528.528,0,0,0-.528.528v6.86H40.742c-.29,0-.375.185-.19.406l4.6,5.53a.427.427,0,0,0,.675,0l4.6-5.53C50.616,37.922,50.531,37.738,50.241,37.738Z" transform="translate(-33.619 -30.35)" fill="#414141" stroke="#f5f5f5" stroke-width="1"/><path d="M49.605,61.847H29.141A1.641,1.641,0,0,1,27.5,60.206V53.14h2.638v5.731a.338.338,0,0,0,.338.338H48.27a.338.338,0,0,0,.338-.338V53.14h2.638v7.066A1.641,1.641,0,0,1,49.605,61.847Z" transform="translate(-27.5 -41.114)" fill="#414141" stroke="#f5f5f5" stroke-width="1"/></g></svg>