<svg xmlns="http://www.w3.org/2000/svg" width="26.782" height="22.761" viewBox="0 0 26.782 22.761"><path d="M1642.464-724.075l.778.778-4.314,4.314h15.883a8.728,8.728,0,0,1,3.432.7,8.847,8.847,0,0,1,2.808,1.9,8.845,8.845,0,0,1,1.9,2.808,8.729,8.729,0,0,1,.7,3.432,8.73,8.73,0,0,1-.7,3.432,8.848,8.848,0,0,1-1.9,2.808,8.849,8.849,0,0,1-2.808,1.9,8.729,8.729,0,0,1-3.432.7h-7.095v-1.079h7.095a7.656,7.656,0,0,0,3.01-.612,7.778,7.778,0,0,0,2.467-1.667,7.773,7.773,0,0,0,1.667-2.467,7.655,7.655,0,0,0,.612-3.01,7.655,7.655,0,0,0-.612-3.01,7.773,7.773,0,0,0-1.667-2.467,7.777,7.777,0,0,0-2.467-1.667,7.657,7.657,0,0,0-3.01-.612h-15.82l4.251,4.251-.778.779-5.6-5.6Z" transform="translate(-1636.864 724.075)" fill="#414141"/><g transform="translate(11.073 10.232)"><path d="M1723.562-596.865v-6.391h-.5a2.935,2.935,0,0,1-.695.851,4.718,4.718,0,0,1-1.146.747v.755a5.233,5.233,0,0,0,.823-.4,4.037,4.037,0,0,0,.74-.538v4.979Z" transform="translate(-1721.218 603.255)" fill="#414141"/><path d="M1774.577-596.178a1.149,1.149,0,0,1-.8-.3,1.471,1.471,0,0,1-.423-.9l-.821.069a1.9,1.9,0,0,0,.627,1.289,2.059,2.059,0,0,0,1.417.486,2.018,2.018,0,0,0,1.672-.773,2.318,2.318,0,0,0,.5-1.493,2.018,2.018,0,0,0-.573-1.485,1.905,1.905,0,0,0-1.407-.578,2.072,2.072,0,0,0-1.2.4l.343-1.71h2.54v-.747h-3.165l-.617,3.269.734.1a1.324,1.324,0,0,1,.478-.445,1.363,1.363,0,0,1,.682-.172,1.309,1.309,0,0,1,.983.386,1.449,1.449,0,0,1,.375,1.055,1.6,1.6,0,0,1-.391,1.129A1.248,1.248,0,0,1,1774.577-596.178Z" transform="translate(-1768.186 602.035)" fill="#414141"/></g></svg>