<svg xmlns="http://www.w3.org/2000/svg" width="19.262" height="19.262" viewBox="0 0 19.262 19.262"><path d="M15.381,6a9.381,9.381,0,0,0,0,18.762.426.426,0,1,0,0-.853,8.574,8.574,0,1,1,1.826-.207.426.426,0,1,0,.18.833A9.376,9.376,0,0,0,15.381,6Zm0,5.117a.64.64,0,1,0,0,1.279l.506-.249.133-.391A.64.64,0,0,0,15.381,11.117Zm-1.106,2.132a.427.427,0,1,0,.04.853h.64v4.69h-.68a.427.427,0,1,0,.04.853h2.132a.426.426,0,1,0,0-.853h-.64V13.675a.443.443,0,0,0-.426-.426Z" transform="translate(-5.75 -5.75)" fill="#414141" stroke="#3f3f3f" stroke-width="0.5"/></svg>