<svg xmlns="http://www.w3.org/2000/svg" width="20.078" height="20.769" viewBox="0 0 20.078 20.769"><path d="M15.789,6A9.973,9.973,0,0,0,6,16.135a9.973,9.973,0,0,0,9.789,10.135.461.461,0,0,0,0-.921,9.053,9.053,0,0,1-8.9-9.213,9.053,9.053,0,0,1,8.9-9.213,9.053,9.053,0,0,1,8.9,9.213,9.131,9.131,0,0,1-6.994,8.99.479.479,0,0,0-.361.552.463.463,0,0,0,.548.348,10.054,10.054,0,0,0,7.7-9.89A9.973,9.973,0,0,0,15.789,6Zm0,5.528a.691.691,0,0,0,0,1.382l.528-.269.139-.422A.68.68,0,0,0,15.789,11.528Zm-1.154,2.3a.461.461,0,0,0,.042.921h.667V19.82h-.709a.461.461,0,0,0,.042.921H16.9a.461.461,0,0,0,0-.921h-.667V14.292a.471.471,0,0,0-.445-.461Z" transform="translate(-5.75 -5.75)" fill="#fd8924" stroke="#fd8924" stroke-width="0.5"/></svg>