<svg xmlns="http://www.w3.org/2000/svg" width="13.887" height="15.87" viewBox="0 0 13.887 15.87"><g transform="translate(0 7.439)"><path d="M6.077,19.4H5.415v.987h.662a.494.494,0,0,0,0-.987Z" transform="translate(-2.729 -17.219)" fill="#ea0303"/><path d="M11.454,19.442H10.8v1.777h.658A.891.891,0,0,0,11.454,19.442Z" transform="translate(-5.442 -17.239)" fill="#ea0303"/><path d="M11.407,15H.5a.5.5,0,0,0-.5.5v4.96a.5.5,0,0,0,.5.5H11.407a.5.5,0,0,0,.5-.5V15.5A.5.5,0,0,0,11.407,15ZM3.348,18.667H2.686v.524a.249.249,0,0,1-.254.273.267.267,0,0,1-.269-.274V16.958a.273.273,0,0,1,.269-.274h.916a.992.992,0,0,1,0,1.983Zm2.7.8H5.1a.249.249,0,0,1-.274-.246V16.965a.269.269,0,0,1,.274-.246h.908A1.373,1.373,0,0,1,6.048,19.464Zm3.534-2.229H8.427v.63H9.438a.306.306,0,0,1,.286.282.275.275,0,0,1-.286.238H8.427v.833a.235.235,0,0,1-.238.246.253.253,0,0,1-.282-.246V16.965a.251.251,0,0,1,.282-.246H9.582a.247.247,0,0,1,.277.246A.273.273,0,0,1,9.582,17.235Z" transform="translate(0 -15)" fill="#ea0303"/></g><path d="M15.407,3.762,12.141.5a1.854,1.854,0,0,0-1.2-.5H5.488A1.49,1.49,0,0,0,4,1.488v4.96a.5.5,0,1,0,.992,0V1.488a.5.5,0,0,1,.5-.5H9.951a.992.992,0,0,1,.992.992v1.86A1.119,1.119,0,0,0,12.059,4.96h1.86a.992.992,0,0,1,.992.992v8.431a.5.5,0,0,1-.5.5H5.488a.5.5,0,0,1-.5-.5.5.5,0,0,0-.992,0A1.49,1.49,0,0,0,5.488,15.87h8.927A1.49,1.49,0,0,0,15.9,14.383V4.96A1.857,1.857,0,0,0,15.407,3.762Z" transform="translate(-2.016)" fill="#ea0303"/></svg>