<svg xmlns="http://www.w3.org/2000/svg" width="16.7" height="16.731" viewBox="0 0 16.7 16.731"><path d="M12,16.219c-.3-.05-.594-.089-.888-.151A11.549,11.549,0,0,1,8,14.791,16.66,16.66,0,0,1,3.89,11.576,16.452,16.452,0,0,1,.474,6.247a6.934,6.934,0,0,1-.5-2.28,2.744,2.744,0,0,1,.752-2.1C1.178,1.405,1.617.923,2.105.5a1.582,1.582,0,0,1,2.3.03c.769.722,1.513,1.48,2.228,2.252a1.53,1.53,0,0,1,0,2.081c-.38.432-.8.825-1.2,1.238-.037.035-.076.065-.143.125a11.724,11.724,0,0,0,4.622,4.609l.959-.97a2.422,2.422,0,0,1,.864-.648,1.45,1.45,0,0,1,1.58.281q1.208,1.15,2.355,2.364a1.543,1.543,0,0,1,.041,2.059c-.484.57-1.02,1.111-1.562,1.634a2.407,2.407,0,0,1-1.4.624,1.061,1.061,0,0,0-.11.032Zm.24-.975a1.852,1.852,0,0,0,1.437-.566c.363-.38.735-.752,1.1-1.128a1.809,1.809,0,0,0,.134-.151.661.661,0,0,0-.019-.951c-.3-.32-.609-.622-.916-.931-.4-.4-.8-.8-1.2-1.195a.648.648,0,0,0-.944-.026c-.061.05-.115.106-.171.162-.385.382-.765.769-1.152,1.147a.733.733,0,0,1-.918.153c-.236-.119-.469-.238-.7-.372A11.979,11.979,0,0,1,6.215,9.149,9.674,9.674,0,0,1,4.439,6.626a.821.821,0,0,1,.216-1.137c.4-.385.819-.793,1.21-1.208a.618.618,0,0,0,.015-.905c-.048-.056-.1-.108-.147-.16L3.836,1.31a.722.722,0,0,0-1.173,0c-.406.4-.789.761-1.158,1.165a2.161,2.161,0,0,0-.432.648,2.753,2.753,0,0,0-.019,1.588A9.618,9.618,0,0,0,1.9,7.034,15.864,15.864,0,0,0,4.35,10.6a15.482,15.482,0,0,0,6.2,4.278,5.646,5.646,0,0,0,1.694.357Z" transform="translate(0.286 0.261)" stroke="#000" stroke-width="0.5"/></svg>