<svg xmlns="http://www.w3.org/2000/svg" width="16.44" height="15.344" viewBox="0 0 16.44 15.344"><path d="M9.554,16.045a.546.546,0,0,0-.58.066L3.643,20.375H1.1a1.1,1.1,0,0,0-1.1,1.1v4.384a1.1,1.1,0,0,0,1.1,1.1H3.643l5.33,4.264a.549.549,0,0,0,.581.065.547.547,0,0,0,.31-.493V16.539A.55.55,0,0,0,9.554,16.045Z" transform="translate(0 -15.99)" fill="#414141"/><path d="M342.685,122.41a.548.548,0,0,0-.77.78,4.371,4.371,0,0,1,0,6.19.548.548,0,1,0,.77.778,5.467,5.467,0,0,0,0-7.749Z" transform="translate(-330.047 -118.613)" fill="#818181"/><path d="M387.8,77.284a.548.548,0,0,0-.773.778,6.54,6.54,0,0,1,0,9.282.548.548,0,0,0,.773.778,7.638,7.638,0,0,0,0-10.838Z" transform="translate(-373.618 -75.031)" fill="#818181"/></svg>