<svg xmlns="http://www.w3.org/2000/svg" xmlns:xlink="http://www.w3.org/1999/xlink" width="30.598" height="17.152" viewBox="0 0 30.598 17.152"><defs><linearGradient id="a" x1="0.5" x2="0.5" y2="1" gradientUnits="objectBoundingBox"><stop offset="0" stop-color="#f86b2d"/><stop offset="1" stop-color="#e84800"/></linearGradient></defs><g transform="translate(0 0)"><path d="M1.51,11.058s0,0,0,0c-.019-.076-.066-.13-.121-.13s-.1.054-.121.13c0,0,0,0,0,0a11.044,11.044,0,0,0-.209,1.508C1.017,13.083,1,13.583,1,14.056s.019.986.058,1.492a10.722,10.722,0,0,0,.207,1.507.015.015,0,0,0,0,.006.211.211,0,0,0,.041.083l.012.015a.093.093,0,0,0,.067.031.1.1,0,0,0,.069-.031l.012-.015a.2.2,0,0,0,.041-.083.015.015,0,0,0,0-.006,11.172,11.172,0,0,0,.207-1.507c.039-.508.06-1.008.058-1.489s-.018-.977-.057-1.492A10.642,10.642,0,0,0,1.51,11.058Z" transform="translate(0.458 -1.712)" fill="url(#a)"/><path d="M.3,12.12v0c-.01-.042-.038-.077-.071-.077s-.06.034-.07.077v0A6.313,6.313,0,0,0,.034,13c-.023.3-.034.6-.034.875s.01.578.034.878a6.526,6.526,0,0,0,.121.883v0a.1.1,0,0,0,.025.048l.006.009a.058.058,0,0,0,.039.02.055.055,0,0,0,.039-.02l.007-.009A.114.114,0,0,0,.3,15.642v0a6.332,6.332,0,0,0,.121-.883c.023-.3.035-.592.034-.875S.442,13.308.419,13A5.767,5.767,0,0,0,.3,12.12Z" transform="translate(0 -1.2)" fill="url(#a)"/><path d="M2.754,10.252s0,0,0-.006c-.026-.1-.092-.181-.171-.181s-.144.077-.169.181a.008.008,0,0,1,0,.006,15.067,15.067,0,0,0-.292,2.114c-.055.724-.083,1.425-.08,2.086,0,.678.026,1.381.082,2.092a15.07,15.07,0,0,0,.29,2.111.01.01,0,0,1,0,.006.275.275,0,0,0,.058.117.067.067,0,0,0,.018.018.13.13,0,0,0,.095.045.136.136,0,0,0,.095-.045.1.1,0,0,0,.018-.018.293.293,0,0,0,.058-.117s0-.006,0-.006a15.29,15.29,0,0,0,.29-2.111c.055-.709.083-1.413.082-2.089s-.025-1.365-.08-2.089A15.267,15.267,0,0,0,2.754,10.252Z" transform="translate(0.934 -2.106)" fill="url(#a)"/><path d="M4.056,9.892s0,0,0-.007c-.029-.115-.1-.2-.19-.2s-.159.086-.188.2c0,0,0,.006,0,.007a16.593,16.593,0,0,0-.324,2.346c-.061.8-.092,1.584-.09,2.319,0,.753.029,1.533.092,2.322a16.742,16.742,0,0,0,.322,2.344s0,.006,0,.009a.3.3,0,0,0,.064.128.085.085,0,0,0,.019.02.151.151,0,0,0,.105.051.154.154,0,0,0,.106-.051.085.085,0,0,0,.019-.02.313.313,0,0,0,.064-.128.021.021,0,0,1,0-.009,17.026,17.026,0,0,0,.322-2.344c.061-.789.092-1.57.09-2.319s-.028-1.519-.09-2.322A16.581,16.581,0,0,0,4.056,9.892Z" transform="translate(1.494 -2.281)" fill="url(#a)"/><path d="M5.492,8.226s0-.006,0-.009c-.035-.146-.127-.252-.238-.252s-.2.108-.236.252c0,0,0,.006,0,.009a21.032,21.032,0,0,0-.407,2.95c-.077,1.011-.115,1.991-.112,2.916,0,.945.036,1.925.114,2.92a21.255,21.255,0,0,0,.406,2.947s0,.006,0,.012a.384.384,0,0,0,.08.162c.007.012.015.015.023.026a.172.172,0,0,0,.265,0c.009-.012.016-.015.025-.026a.422.422,0,0,0,.08-.162c0-.006,0-.009,0-.012A21.478,21.478,0,0,0,5.9,17.012c.076-.995.115-1.975.115-2.917s-.035-1.908-.114-2.917A21.024,21.024,0,0,0,5.492,8.226Z" transform="translate(2.06 -3.07)" fill="url(#a)"/><path d="M21.224,9.322A7.645,7.645,0,0,0,7.833,7.968V21.759H23.141a2.117,2.117,0,0,0,1.577-.63A6.8,6.8,0,0,0,21.224,9.322Z" transform="translate(3.593 -4.609)" fill="url(#a)"/><path d="M7.033,7.191s0-.007,0-.012c-.039-.163-.143-.283-.267-.283s-.226.12-.265.283c0,0,0,.007,0,.012a23.684,23.684,0,0,0-.458,3.319c-.088,1.135-.13,2.238-.127,3.279,0,1.065.041,2.168.128,3.285a23.749,23.749,0,0,0,.457,3.316s0,.006,0,.012a.446.446,0,0,0,.09.182c.009.015.018.018.028.029a.192.192,0,0,0,.3,0,.17.17,0,0,0,.026-.029.446.446,0,0,0,.09-.182c0-.006,0-.009,0-.012a24.2,24.2,0,0,0,.457-3.316c.086-1.117.128-2.219.128-3.279s-.039-2.149-.127-3.284A23.412,23.412,0,0,0,7.033,7.191Z" transform="translate(2.71 -3.56)" fill="url(#a)"/></g></svg>