<svg xmlns="http://www.w3.org/2000/svg" width="30.85" height="30.85" viewBox="0 0 30.85 30.85"><path d="M15.425,0A15.425,15.425,0,1,0,30.85,15.425,15.443,15.443,0,0,0,15.425,0ZM22.5,22.266a.962.962,0,0,1-.789.411.947.947,0,0,1-.553-.175c-3.615-2.541-9.629-2.682-13.69-1.735a.965.965,0,0,1-.436-1.88c4.464-1.033,11.135-.845,15.232,2.038A.964.964,0,0,1,22.5,22.266ZM24.383,18.5a.965.965,0,0,1-1.346.22c-4.194-3.01-9.346-3.758-16.221-2.354a.964.964,0,0,1-.388-1.89c7.437-1.517,13.071-.669,17.733,2.676A.968.968,0,0,1,24.383,18.5Zm1.9-5.052a.967.967,0,0,1-1.34.256c-5.316-3.608-13.4-3.625-18.628-1.774a.965.965,0,0,1-.642-1.82c5.69-2.011,14.507-1.969,20.355,2A.967.967,0,0,1,26.284,13.453Z" fill="#22d761"/></svg>