<svg xmlns="http://www.w3.org/2000/svg" width="14.146" height="20.511" viewBox="0 0 14.146 20.511"><path d="M26.823,6a6.809,6.809,0,0,0-6.539,8.756,17.134,17.134,0,0,0,1.251,2.679c.606,1.132,1.349,2.436,2.075,3.674,1.452,2.477,2.829,4.691,2.829,4.691a.455.455,0,0,0,.768,0s1.376-2.214,2.829-4.691c.726-1.238,1.469-2.543,2.075-3.674a17.134,17.134,0,0,0,1.251-2.679A6.809,6.809,0,0,0,26.823,6Zm0,.91a5.917,5.917,0,0,1,5.671,7.59,18.241,18.241,0,0,1-1.18,2.5c-.6,1.114-1.338,2.413-2.061,3.646-1.248,2.128-2.128,3.54-2.431,4.03-.3-.489-1.183-1.9-2.431-4.03-.723-1.232-1.464-2.532-2.061-3.646a18.241,18.241,0,0,1-1.18-2.5,5.917,5.917,0,0,1,5.671-7.59Zm0,2.729a3.184,3.184,0,1,0,3.184,3.184A3.191,3.191,0,0,0,26.823,9.639Zm0,.91a2.274,2.274,0,1,1-2.274,2.274A2.267,2.267,0,0,1,26.823,10.549Z" transform="translate(-19.75 -5.75)" fill="#212121" stroke="#212121" stroke-width="0.5"/></svg>