<?xml version="1.0" encoding="utf-8"?>
<!-- Generator: Adobe Illustrator 23.0.2, SVG Export Plug-In . SVG Version: 6.00 Build 0)  -->
<svg version="1.1" id="Layer_1" xmlns="http://www.w3.org/2000/svg" xmlns:xlink="http://www.w3.org/1999/xlink" x="0px" y="0px"
	 viewBox="0 0 905 154" style="enable-background:new 0 0 905 154;" xml:space="preserve">
<style type="text/css">
	.st0{fill:#333333;}
	.st1{fill:#0099AB;}
</style>
<g>
	<g>
		<path class="st0" d="M483.79,50.83h15.63l5.77-18.44l17.98-5.27l-7.42,23.71h19.67l-3.79,12.12h-19.67l-16.54,52.86
			c-0.33,1.05-0.66,2.28-0.98,3.69c-0.33,1.41-0.29,2.7,0.11,3.86c0.39,1.17,1.25,2.17,2.58,2.99c1.32,0.82,3.45,1.23,6.38,1.23
			c1.64,0,3.22-0.09,4.74-0.26c1.52-0.18,2.67-0.38,3.44-0.61l-4.01,12.82c-1.6,0.23-3.57,0.47-5.93,0.7
			c-2.36,0.23-5.06,0.35-8.1,0.35c-7.61,0-12.82-1.32-15.62-3.95c-2.81-2.63-3.07-7.58-0.8-14.84l18.41-58.83H480L483.79,50.83z"/>
		<path class="st0" d="M581.83,139.34c0.11-2.22,0.38-4.39,0.8-6.5c0.42-2.11,1.01-4.33,1.74-6.67c-3.13,3.63-6.22,6.5-9.28,8.61
			c-3.06,2.11-5.99,3.72-8.8,4.83c-2.81,1.11-5.4,1.81-7.77,2.11c-2.37,0.29-4.5,0.44-6.37,0.44c-5.03,0-9.27-0.67-12.71-2.02
			c-3.44-1.34-6.11-3.19-8.02-5.53c-1.9-2.34-3.03-5.09-3.39-8.25c-0.36-3.16,0.03-6.56,1.17-10.19c0.55-1.76,1.37-3.74,2.48-5.97
			c1.1-2.22,2.57-4.48,4.4-6.76c1.83-2.28,4.09-4.57,6.8-6.85c2.7-2.28,5.99-4.36,9.85-6.23c2.74-1.29,5.64-2.31,8.69-3.07
			c3.05-0.76,6.04-1.34,8.98-1.76c2.94-0.41,5.68-0.67,8.24-0.79c2.55-0.11,4.71-0.18,6.47-0.18c2.1,0,3.97,0.03,5.59,0.09
			c1.62,0.06,3.68,0.21,6.19,0.44c0.84-2.69,1.55-5.06,2.14-7.11c0.58-2.05,1.01-3.8,1.3-5.27c0.28-1.46,0.4-2.78,0.36-3.95
			c-0.04-1.17-0.33-2.22-0.85-3.16c-0.95-2.22-2.84-3.75-5.68-4.57c-2.84-0.82-5.44-1.23-7.78-1.23c-4.21,0-7.68,0.61-10.41,1.84
			c-2.73,1.23-4.93,2.66-6.62,4.3c-1.69,1.64-2.94,3.31-3.76,5c-0.83,1.7-1.37,2.96-1.62,3.78h-16.51c0.97-2.34,2.22-4.94,3.76-7.81
			c1.54-2.87,4.08-5.82,7.6-8.87c2.22-1.87,4.7-3.42,7.43-4.65c2.73-1.23,5.46-2.19,8.2-2.9c2.74-0.7,5.47-1.2,8.19-1.49
			c2.73-0.29,5.26-0.44,7.6-0.44c3.16,0,6.27,0.26,9.32,0.79c3.05,0.53,5.82,1.32,8.3,2.37c2.48,1.05,4.57,2.4,6.29,4.04
			c1.71,1.64,2.8,3.57,3.28,5.8c0.56,2.69,0.65,5.12,0.27,7.29c-0.39,2.17-0.89,4.25-1.51,6.23l-13.9,42.15
			c-0.11,0.35-0.37,1.29-0.79,2.81c-0.42,1.52-0.93,3.34-1.53,5.44c-0.61,2.11-1.2,4.39-1.79,6.85s-1.06,4.8-1.41,7.02H581.83z
			 M593.31,96.49c-1.45-0.23-2.87-0.38-4.25-0.44c-1.39-0.06-3.08-0.09-5.06-0.09c-1.64,0-4.25,0.09-7.81,0.26
			c-3.57,0.18-7.31,0.82-11.23,1.93c-3.92,1.11-7.61,2.9-11.07,5.36c-3.46,2.46-5.89,5.91-7.28,10.36c-0.44,1.4-0.67,2.99-0.69,4.74
			c-0.02,1.76,0.39,3.42,1.24,5c0.85,1.58,2.28,2.9,4.29,3.95c2.01,1.05,4.89,1.58,8.64,1.58c8.43,0,15.68-3.16,21.76-9.48
			c1.41-1.52,2.6-2.99,3.57-4.39c0.97-1.4,1.84-2.99,2.63-4.74c0.78-1.76,1.59-3.78,2.42-6.06
			C591.29,102.2,592.24,99.54,593.31,96.49z"/>
		<path class="st0" d="M664.46,11.67h16.33l-23.64,75.51l44.28-36h21.6l-48.94,37.41l23.63,50.75h-21.6l-20.4-47.59l-14.9,47.59
			H624.5L664.46,11.67z"/>
		<path class="st0" d="M739.92,98.25c-1.55,4.57-2.46,8.78-2.73,12.64c-0.27,3.86,0.16,7.23,1.32,10.1
			c1.15,2.87,3.09,5.09,5.81,6.67c2.72,1.58,6.37,2.37,10.94,2.37c5.38,0,10.47-1.46,15.25-4.39c4.78-2.93,8.51-7.55,11.19-13.87
			h16.51c-0.93,2.23-2.33,5-4.19,8.34c-1.86,3.34-4.91,6.7-9.13,10.1c-1.27,1.05-2.94,2.28-5.02,3.69c-2.08,1.4-4.53,2.69-7.36,3.86
			c-2.83,1.17-6.03,2.17-9.63,2.99c-3.59,0.82-7.61,1.23-12.06,1.23c-13.93,0-22.97-4.04-27.11-12.12
			c-4.14-8.08-4.04-19.08,0.32-33.02c2.71-8.66,6.34-16.54,10.9-23.62c4.56-7.08,11.04-13.02,19.45-17.83
			c2.58-1.52,5.14-2.69,7.68-3.51c2.54-0.82,4.96-1.46,7.28-1.93c2.31-0.47,4.42-0.76,6.33-0.88c1.91-0.11,3.51-0.18,4.8-0.18
			c6.56,0,11.81,0.88,15.77,2.63c3.96,1.76,6.89,4.07,8.8,6.94c1.91,2.87,3.07,6.09,3.48,9.66c0.4,3.57,0.35,7.2-0.16,10.89
			s-1.3,7.23-2.36,10.62c-1.06,3.4-1.96,6.26-2.69,8.61H739.92z M790.09,86.66c0.66-2.11,1.28-4.65,1.86-7.64
			c0.58-2.99,0.56-5.82-0.05-8.52c-0.62-2.69-2.09-5-4.42-6.94c-2.32-1.93-6-2.9-11.03-2.9c-2.69,0-5.58,0.44-8.67,1.32
			c-3.08,0.88-6.09,2.34-9.01,4.39c-2.92,2.05-5.66,4.71-8.21,7.99c-2.55,3.28-4.65,7.38-6.31,12.29H790.09z"/>
		<path class="st0" d="M832.36,113.18c-0.51,1.64-0.83,3.4-0.95,5.27c-0.12,1.87,0.31,3.6,1.28,5.18c0.97,1.58,2.55,2.9,4.73,3.95
			c2.19,1.05,5.27,1.58,9.25,1.58c3.4,0,6.5-0.38,9.31-1.14c2.81-0.76,5.45-2.25,7.9-4.48c2.64-2.46,4.44-5.21,5.39-8.25
			c0.66-2.11,0.83-3.86,0.51-5.27c-0.32-1.4-1.13-2.55-2.44-3.42c-1.3-0.88-3.08-1.67-5.32-2.37c-2.24-0.7-4.89-1.41-7.95-2.11
			c-4.24-1.05-8.25-2.17-12.04-3.34c-3.79-1.17-6.92-2.69-9.37-4.57c-2.46-1.87-4.14-4.27-5.03-7.2c-0.9-2.93-0.63-6.67,0.8-11.24
			c1.25-3.98,3.24-7.64,5.98-10.98c2.74-3.34,5.96-6.15,9.66-8.43c3.7-2.28,7.86-4.07,12.48-5.36c4.62-1.29,9.5-1.93,14.65-1.93
			c2.81,0,5.72,0.24,8.74,0.7c3.01,0.47,5.82,1.23,8.42,2.28c2.6,1.05,4.85,2.46,6.76,4.22c1.91,1.76,3.1,3.92,3.59,6.5
			c0.4,2.46,0.36,4.74-0.12,6.85s-1.02,4.1-1.61,5.97h-16.86c1.14-3.28,1.43-5.88,0.87-7.82c-0.57-1.93-1.6-3.39-3.1-4.39
			c-1.51-0.99-3.22-1.61-5.13-1.84c-1.92-0.23-3.64-0.35-5.16-0.35c-0.59,0-1.86,0.06-3.83,0.18c-1.97,0.12-4.14,0.59-6.5,1.4
			c-2.36,0.82-4.63,2.08-6.8,3.78c-2.17,1.7-3.75,4.13-4.74,7.29c-0.62,1.99-0.71,3.66-0.25,5c0.46,1.35,1.2,2.43,2.23,3.25
			c1.03,0.82,2.19,1.44,3.46,1.84c1.28,0.41,2.44,0.79,3.51,1.14c5.65,1.4,10.27,2.61,13.89,3.6c3.61,1,6.53,1.93,8.78,2.81
			c2.24,0.88,3.99,1.76,5.23,2.63c1.25,0.88,2.33,1.9,3.25,3.07c1.73,2.34,2.64,4.95,2.73,7.81c0.09,2.87-0.29,5.71-1.17,8.52
			c-1.54,4.92-4.1,9.37-7.69,13.35c-3.59,3.98-7.33,6.97-11.23,8.96c-4.6,2.34-9.28,3.92-14.04,4.74
			c-4.77,0.82-9.43,1.23-13.99,1.23c-4.45,0-8.6-0.5-12.44-1.49c-3.85-0.99-7.03-2.6-9.55-4.83c-2.53-2.22-4.15-5.18-4.86-8.87
			c-0.72-3.69-0.26-8.17,1.39-13.43H832.36z"/>
	</g>
	<g>
		<path class="st1" d="M65.9,139.34c-0.59-2.22-1-4.39-1.23-6.5c-0.24-2.11-0.35-4.33-0.35-6.67c-1.99,3.63-4.19,6.5-6.59,8.61
			c-2.4,2.11-4.83,3.72-7.29,4.83c-2.46,1.11-4.83,1.81-7.11,2.11c-2.28,0.29-4.36,0.44-6.23,0.44c-5.03,0-9.48-0.67-13.35-2.02
			c-3.86-1.34-7.11-3.19-9.75-5.53c-2.63-2.34-4.63-5.09-5.97-8.25c-1.35-3.16-2.02-6.56-2.02-10.19c0-1.76,0.2-3.74,0.61-5.97
			c0.41-2.22,1.17-4.48,2.28-6.76c1.11-2.28,2.66-4.57,4.65-6.85c1.99-2.28,4.62-4.36,7.9-6.23c2.34-1.29,4.92-2.31,7.73-3.07
			c2.81-0.76,5.62-1.34,8.43-1.76c2.81-0.41,5.47-0.67,7.99-0.79c2.52-0.11,4.65-0.18,6.41-0.18c2.11,0,3.98,0.03,5.62,0.09
			c1.64,0.06,3.75,0.21,6.32,0.44c0-2.69-0.03-5.06-0.09-7.11c-0.06-2.05-0.18-3.8-0.35-5.27c-0.18-1.46-0.47-2.78-0.88-3.95
			c-0.41-1.17-1.03-2.22-1.84-3.16c-1.64-2.22-4.01-3.75-7.11-4.57c-3.1-0.82-5.83-1.23-8.17-1.23c-4.21,0-7.49,0.61-9.83,1.84
			c-2.34,1.23-4.1,2.66-5.27,4.3c-1.17,1.64-1.9,3.31-2.19,5c-0.29,1.7-0.44,2.96-0.44,3.78H11.28c0.23-2.34,0.67-4.94,1.32-7.81
			c0.64-2.87,2.25-5.82,4.83-8.87c1.64-1.87,3.63-3.42,5.97-4.65c2.34-1.23,4.77-2.19,7.29-2.9c2.52-0.7,5.09-1.2,7.73-1.49
			c2.63-0.29,5.12-0.44,7.46-0.44c3.16,0,6.35,0.26,9.57,0.79c3.22,0.53,6.23,1.32,9.04,2.37c2.81,1.05,5.33,2.4,7.55,4.04
			c2.22,1.64,3.92,3.57,5.09,5.8c1.4,2.69,2.25,5.12,2.55,7.29c0.29,2.17,0.44,4.25,0.44,6.23l-0.7,42.15
			c0,0.35,0.03,1.29,0.09,2.81c0.06,1.52,0.12,3.34,0.18,5.44c0.06,2.11,0.18,4.39,0.35,6.85c0.18,2.46,0.44,4.8,0.79,7.02H65.9z
			 M63.96,96.49c-1.52-0.23-2.99-0.38-4.39-0.44c-1.41-0.06-3.1-0.09-5.09-0.09c-1.64,0-4.21,0.09-7.73,0.26
			c-3.51,0.18-7.06,0.82-10.62,1.93c-3.57,1.11-6.7,2.9-9.4,5.36c-2.69,2.46-4.04,5.91-4.04,10.36c0,1.4,0.26,2.99,0.79,4.74
			c0.53,1.76,1.46,3.42,2.81,5c1.34,1.58,3.19,2.9,5.53,3.95c2.34,1.05,5.38,1.58,9.13,1.58c8.43,0,14.69-3.16,18.79-9.48
			c0.94-1.52,1.67-2.99,2.2-4.39c0.53-1.4,0.9-2.99,1.14-4.74c0.23-1.76,0.41-3.78,0.53-6.06C63.73,102.2,63.85,99.54,63.96,96.49z"
			/>
		<path class="st1" d="M124.9,51.19v56.72c0,2.11,0.18,4.33,0.53,6.67c0.35,2.34,1.2,4.45,2.55,6.32c1.34,1.87,3.25,3.42,5.71,4.65
			c2.46,1.23,5.79,1.84,10.01,1.84c4.1,0,7.99-0.76,11.68-2.28c3.69-1.52,6.7-4.04,9.04-7.55c1.87-2.69,2.96-5.56,3.25-8.61
			c0.29-3.04,0.44-5.68,0.44-7.9V51.19h17.03v71.65c0,0.47,0.03,1.35,0.09,2.63c0.06,1.29,0.11,2.75,0.18,4.39
			c0.06,1.64,0.11,3.34,0.18,5.09c0.06,1.76,0.09,3.22,0.09,4.39h-17.21l-0.35-15.1c-0.82,1.52-1.84,3.22-3.07,5.09
			c-1.23,1.87-2.9,3.6-5,5.18c-2.11,1.58-4.8,2.93-8.08,4.04c-3.28,1.11-7.26,1.67-11.94,1.67c-5.5,0-10.25-0.73-14.23-2.2
			c-3.98-1.46-7.29-3.51-9.92-6.15c-2.63-2.63-4.6-5.8-5.88-9.48c-1.29-3.69-1.93-7.7-1.93-12.03V51.19H124.9z"/>
		<path class="st1" d="M278.21,12.73h16.51v112.57c0,0.47,0.03,1.26,0.09,2.37c0.06,1.11,0.12,2.34,0.18,3.69
			c0.06,1.35,0.11,2.72,0.18,4.13c0.06,1.41,0.14,2.7,0.26,3.86h-16.51l-0.35-14.05c-0.7,1.29-1.61,2.75-2.72,4.39
			c-1.11,1.64-2.84,3.28-5.18,4.92c-3.63,2.46-7.41,4.16-11.33,5.09c-3.92,0.94-7.41,1.4-10.45,1.4c-2.93,0-6.56-0.53-10.89-1.58
			c-4.33-1.05-8.49-3.16-12.47-6.32c-3.98-3.16-7.41-7.67-10.27-13.52c-2.87-5.85-4.3-13.64-4.3-23.36c0-8.43,1.11-15.66,3.34-21.69
			c2.22-6.03,5.18-11,8.87-14.93c3.69-3.92,7.93-6.82,12.73-8.69c4.8-1.87,9.77-2.81,14.93-2.81c4.68,0,8.66,0.61,11.94,1.84
			c3.28,1.23,5.97,2.66,8.08,4.3c2.11,1.64,3.72,3.28,4.83,4.92c1.11,1.64,1.96,2.93,2.55,3.86V12.73z M278.74,94.03
			c0-6.44-0.64-11.56-1.93-15.37c-1.29-3.8-2.87-6.88-4.74-9.22c-1.76-2.34-4.24-4.42-7.46-6.23c-3.22-1.81-7.17-2.72-11.85-2.72
			c-4.1,0-7.52,0.73-10.27,2.2c-2.75,1.47-5,3.34-6.76,5.62c-1.76,2.28-3.13,4.8-4.13,7.55c-1,2.75-1.73,5.44-2.2,8.08
			c-0.47,2.63-0.73,5.03-0.79,7.2c-0.06,2.17-0.09,3.72-0.09,4.65c0,3.86,0.32,7.82,0.96,11.85c0.64,4.04,1.84,7.67,3.6,10.89
			c1.76,3.22,4.22,5.85,7.38,7.9c3.16,2.05,7.26,3.07,12.29,3.07c6.44,0,11.44-1.52,15.01-4.57c3.57-3.04,6.15-6.59,7.73-10.62
			c1.58-4.04,2.52-7.99,2.81-11.85C278.59,98.6,278.74,95.79,278.74,94.03z"/>
		<path class="st1" d="M322.82,12.9h19.84v18.09h-19.84V12.9z M324.57,51.19h16.51v88.16h-16.51V51.19z"/>
		<path class="st1" d="M366.72,96.32c0-5.38,0.7-10.89,2.11-16.51c1.4-5.62,3.83-10.71,7.29-15.28c3.45-4.57,8.05-8.31,13.79-11.24
			c5.74-2.93,12.94-4.39,21.6-4.39c8.78,0,15.98,1.55,21.6,4.65c5.62,3.1,10.04,6.97,13.26,11.59c3.22,4.63,5.41,9.63,6.59,15.01
			c1.17,5.39,1.76,10.36,1.76,14.93c0,6.44-0.91,12.53-2.72,18.26c-1.82,5.74-4.57,10.74-8.25,15.01
			c-3.69,4.28-8.34,7.67-13.96,10.19c-5.62,2.52-12.18,3.78-19.67,3.78c-7.26,0-13.61-1.2-19.05-3.6c-5.44-2.4-9.98-5.65-13.61-9.75
			c-3.63-4.1-6.32-8.96-8.08-14.58C367.6,108.79,366.72,102.76,366.72,96.32z M383.93,95.26c0,4.57,0.5,8.93,1.49,13.08
			c0.99,4.16,2.57,7.84,4.74,11.06c2.17,3.22,4.92,5.8,8.25,7.73c3.34,1.93,7.35,2.9,12.03,2.9c3.16,0,6.32-0.61,9.48-1.84
			c3.16-1.23,6-3.22,8.52-5.97c2.52-2.75,4.59-6.38,6.23-10.89c1.64-4.51,2.46-10.1,2.46-16.77c0-11-2.34-19.34-7.02-25.02
			c-4.68-5.68-10.89-8.52-18.62-8.52c-2.69,0-5.62,0.5-8.78,1.49c-3.16,1-6.15,2.75-8.96,5.27c-2.81,2.52-5.15,6-7.02,10.45
			C384.86,82.68,383.93,88.36,383.93,95.26z"/>
	</g>
</g>
</svg>
