<?xml version="1.0" encoding="utf-8"?>
<!-- Generator: Adobe Illustrator 23.0.2, SVG Export Plug-In . SVG Version: 6.00 Build 0)  -->
<svg version="1.1" id="Layer_1" xmlns="http://www.w3.org/2000/svg" xmlns:xlink="http://www.w3.org/1999/xlink" x="0px" y="0px"
	 viewBox="0 0 900 476.84" style="enable-background:new 0 0 900 476.84;" xml:space="preserve">
<style type="text/css">
	.st0{fill:#67686B;}
	.st1{fill:#206AA0;}
</style>
<g>
	<g>
		<g>
			<path class="st0" d="M53.26,187.85c11.56-8.11,21.48-14.69,38.01-14.69c22.35,0,56.55,15.56,56.55,60.89
				c0,51.69-28.68,67.03-59.84,67.03c-12.96,0-23.45-4.6-34.72-11.41v105.07H12.43V175.79h40.83V187.85z M53.26,262.74
				c6.33,7.66,14.34,14.46,26.45,14.46c24.54,0,28.13-24.1,28.13-38.77c0-13.57-4.68-36.35-27.29-36.35
				c-11.86,0-20.12,6.56-27.28,13.36V262.74L53.26,262.74z"/>
			<path class="st0" d="M158.41,237.12c0-32.64,22.63-63.97,67.83-63.97c45.22,0,67.83,31.33,67.83,63.97
				c0,32.42-22.88,63.95-67.83,63.95C181.32,301.07,158.41,269.55,158.41,237.12 M252.18,237.12c0-15.33-3.87-40.11-25.93-40.11
				c-22.04,0-25.89,24.78-25.89,40.11s3.85,40.07,25.89,40.07C248.31,277.19,252.18,252.45,252.18,237.12"/>
			<path class="st0" d="M403.67,288.14c-12.42,8.76-22.06,12.93-39.14,12.93c-31.16,0-59.81-15.34-59.81-67.03
				c0-45.33,34.17-60.89,56.5-60.89c16.56,0,26.47,6.58,38.04,14.69V72.16h40.81v226.28h-32.8L403.67,288.14z M371.96,198.81
				c-22.6,0-27.29,22.77-27.29,36.34c0,14.67,3.59,38.32,28.13,38.32c12.12,0,20.12-6.36,26.47-14.02v-47.29
				C392.08,205.34,383.82,198.81,371.96,198.81"/>
		</g>
		<g>
			<path class="st1" d="M64.56,402.16l32.19-25.43c12.43,18.04,158.37,115.27,274.3-31.96l37.19,16.81
				C300.84,517.32,121.77,466.5,64.56,402.16"/>
			<path class="st1" d="M128.2,353l23.64-18.68c10.35,11.91,92.81,52.2,155.31-18.29l27.68,12.35
				C274.99,406.99,170.82,393.09,128.2,353"/>
			<path class="st1" d="M305.56,120.5l-24,19.28c-5.24-5.79-80.62-49.43-147.96,18.95l-27.71-12.76
				C169.92,70.81,261.12,85.99,305.56,120.5"/>
			<path class="st1" d="M368.47,69.91l-32.32,25.84C234.47,16.62,122.34,59.81,70.18,129.19L32.71,112.4
				C82.81,32.71,234.57-43.66,368.47,69.91"/>
		</g>
		<g>
			<path class="st0" d="M546.89,216.28c-0.15-1.38-0.46-3.4-0.92-6.07c-0.46-2.67-1.45-5.34-2.98-8.02c-1.53-2.67-3.78-5-6.76-6.99
				c-2.98-1.98-7.07-2.98-12.26-2.98c-7.49,0-13.25,1.83-17.3,5.5c-4.05,3.67-6.99,7.94-8.82,12.83c-1.83,4.89-2.9,9.74-3.21,14.55
				c-0.31,4.81-0.46,8.29-0.46,10.42c0,5.96,0.42,11.65,1.26,17.07c0.84,5.42,2.33,10.27,4.47,14.55c2.14,4.28,5.04,7.67,8.71,10.19
				c3.66,2.52,8.4,3.78,14.2,3.78c4.58,0,8.44-0.76,11.57-2.29c3.13-1.52,5.65-3.51,7.56-5.96c1.91-2.44,3.32-5.15,4.24-8.13
				c0.92-2.98,1.45-5.84,1.6-8.59h21.76c-0.31,5.65-1.57,10.96-3.78,15.92c-2.22,4.96-5.31,9.32-9.28,13.06
				c-3.97,3.74-8.78,6.72-14.43,8.94c-5.65,2.21-11.99,3.32-19.01,3.32c-1.99,0-4.51-0.15-7.56-0.46c-3.06-0.31-6.3-0.96-9.74-1.95
				c-3.44-0.99-6.96-2.48-10.56-4.47c-3.6-1.98-6.95-4.66-10.03-8.02c-1.7-1.98-3.4-4.27-5.09-6.87c-1.7-2.6-3.2-5.65-4.51-9.16
				c-1.31-3.51-2.35-7.56-3.12-12.14c-0.77-4.58-1.16-9.85-1.16-15.81c0-11.91,1.66-21.88,4.98-29.9
				c3.31-8.02,7.55-14.39,12.71-19.13c5.16-4.73,10.79-8.09,16.9-10.08c6.11-1.98,12.06-2.98,17.87-2.98c1.83,0,4.24,0.15,7.22,0.46
				c2.98,0.31,6.11,0.96,9.39,1.95c3.28,1,6.57,2.41,9.85,4.24c3.28,1.83,6.22,4.35,8.82,7.56c4.27,4.89,6.87,9.59,7.79,14.09
				c0.92,4.51,1.53,8.36,1.83,11.57H546.89z"/>
			<path class="st0" d="M665.78,294.4c-0.77-2.9-1.3-5.73-1.6-8.48c-0.31-2.75-0.46-5.65-0.46-8.71c-2.6,4.74-5.46,8.48-8.59,11.23
				c-3.13,2.75-6.3,4.85-9.51,6.3s-6.3,2.37-9.28,2.75c-2.98,0.38-5.69,0.57-8.13,0.57c-6.57,0-12.37-0.88-17.41-2.64
				c-5.04-1.75-9.28-4.16-12.71-7.22c-3.44-3.05-6.04-6.64-7.79-10.77c-1.76-4.12-2.64-8.55-2.64-13.29c0-2.29,0.27-4.89,0.8-7.79
				c0.53-2.9,1.52-5.84,2.98-8.82c1.45-2.98,3.47-5.96,6.07-8.93c2.6-2.98,6.03-5.69,10.31-8.13c3.05-1.68,6.41-3.01,10.08-4.01
				c3.67-0.99,7.33-1.75,11-2.29c3.67-0.53,7.14-0.88,10.42-1.03c3.28-0.15,6.07-0.23,8.36-0.23c2.75,0,5.19,0.04,7.33,0.11
				c2.14,0.08,4.89,0.27,8.25,0.57c0-3.51-0.04-6.6-0.11-9.28c-0.08-2.67-0.23-4.96-0.46-6.87c-0.23-1.91-0.61-3.63-1.15-5.15
				c-0.54-1.52-1.34-2.9-2.4-4.12c-2.14-2.9-5.23-4.89-9.28-5.96c-4.05-1.07-7.6-1.6-10.65-1.6c-5.5,0-9.78,0.8-12.83,2.41
				c-3.06,1.6-5.35,3.48-6.87,5.61c-1.53,2.14-2.48,4.32-2.86,6.53c-0.38,2.22-0.57,3.86-0.57,4.92h-21.53
				c0.3-3.05,0.88-6.45,1.72-10.19c0.84-3.74,2.94-7.6,6.3-11.57c2.14-2.44,4.73-4.47,7.79-6.07c3.05-1.6,6.22-2.86,9.51-3.78
				c3.28-0.92,6.64-1.56,10.08-1.95c3.44-0.38,6.68-0.57,9.74-0.57c4.12,0,8.28,0.34,12.48,1.03c4.2,0.69,8.13,1.72,11.8,3.09
				c3.67,1.37,6.95,3.13,9.85,5.27c2.9,2.14,5.12,4.66,6.64,7.56c1.83,3.51,2.94,6.68,3.32,9.51c0.38,2.83,0.57,5.54,0.57,8.13
				l-0.92,54.98c0,0.46,0.04,1.68,0.11,3.67c0.07,1.99,0.15,4.35,0.23,7.1c0.08,2.75,0.23,5.73,0.46,8.93
				c0.23,3.21,0.57,6.26,1.03,9.16H665.78z M663.26,238.5c-1.99-0.3-3.89-0.49-5.73-0.57c-1.83-0.08-4.05-0.11-6.64-0.11
				c-2.14,0-5.5,0.11-10.08,0.34c-4.58,0.23-9.2,1.07-13.86,2.52c-4.66,1.45-8.74,3.78-12.26,6.99c-3.51,3.21-5.27,7.71-5.27,13.52
				c0,1.83,0.34,3.89,1.03,6.18c0.69,2.29,1.91,4.47,3.66,6.53c1.75,2.06,4.16,3.78,7.22,5.15c3.05,1.37,7.02,2.06,11.91,2.06
				c11,0,19.17-4.12,24.51-12.37c1.22-1.98,2.18-3.89,2.86-5.73c0.69-1.83,1.18-3.89,1.49-6.18c0.3-2.29,0.53-4.93,0.69-7.9
				C662.95,245.95,663.11,242.47,663.26,238.5z"/>
			<path class="st0" d="M735.43,260.26c0,2.14,0.3,4.43,0.92,6.87c0.61,2.44,1.87,4.7,3.78,6.76c1.91,2.06,4.5,3.78,7.79,5.15
				c3.28,1.37,7.52,2.06,12.71,2.06c4.43,0,8.32-0.49,11.68-1.49c3.36-0.99,6.19-2.94,8.48-5.84c2.44-3.21,3.67-6.79,3.67-10.77
				c0-2.75-0.5-5.04-1.49-6.87c-1-1.83-2.52-3.32-4.58-4.47c-2.06-1.15-4.7-2.18-7.9-3.09c-3.21-0.92-6.95-1.83-11.23-2.75
				c-5.96-1.38-11.65-2.82-17.07-4.35c-5.42-1.52-10.12-3.51-14.09-5.96c-3.97-2.44-7.14-5.57-9.51-9.39
				c-2.37-3.82-3.55-8.71-3.55-14.66c0-5.19,1.11-9.97,3.32-14.32c2.21-4.35,5.27-8.02,9.16-11c3.89-2.98,8.59-5.3,14.09-6.99
				c5.5-1.68,11.61-2.52,18.33-2.52c3.66,0,7.56,0.31,11.68,0.92c4.12,0.61,8.09,1.6,11.91,2.98c3.82,1.37,7.33,3.21,10.54,5.5
				c3.21,2.29,5.65,5.12,7.33,8.48c1.52,3.21,2.41,6.18,2.63,8.93c0.23,2.75,0.34,5.35,0.34,7.79h-21.99
				c0.15-4.27-0.54-7.67-2.06-10.19c-1.53-2.52-3.48-4.43-5.84-5.73c-2.37-1.3-4.85-2.1-7.45-2.41c-2.6-0.3-4.89-0.46-6.87-0.46
				c-0.77,0-2.41,0.08-4.92,0.23c-2.52,0.15-5.15,0.77-7.9,1.83c-2.75,1.07-5.19,2.71-7.33,4.92c-2.14,2.22-3.21,5.38-3.21,9.51
				c0,2.6,0.57,4.78,1.72,6.53c1.15,1.76,2.56,3.17,4.24,4.24c1.68,1.07,3.44,1.87,5.27,2.41c1.83,0.54,3.51,1.03,5.04,1.49
				c7.94,1.83,14.47,3.4,19.59,4.7c5.11,1.3,9.31,2.52,12.6,3.67c3.28,1.15,5.92,2.29,7.9,3.44c1.98,1.15,3.82,2.48,5.5,4.01
				c3.21,3.06,5.46,6.45,6.76,10.19c1.3,3.74,1.95,7.45,1.95,11.11c0,6.41-1.53,12.22-4.58,17.41c-3.06,5.19-6.72,9.09-11,11.68
				c-5.04,3.06-10.5,5.11-16.38,6.18c-5.88,1.07-11.8,1.6-17.75,1.6c-5.81,0-11.42-0.65-16.84-1.95c-5.42-1.3-10.23-3.4-14.43-6.3
				c-4.2-2.9-7.52-6.76-9.97-11.57c-2.44-4.81-3.67-10.65-3.67-17.53H735.43z"/>
			<path class="st0" d="M819.96,178.94h20.39v-24.05l21.3-6.87v30.93h25.66v15.81h-25.66v68.96c0,1.37,0.08,2.98,0.23,4.81
				c0.15,1.83,0.72,3.52,1.72,5.04c0.99,1.53,2.52,2.83,4.58,3.89c2.06,1.07,5,1.6,8.82,1.6c2.14,0,4.16-0.11,6.07-0.34
				c1.91-0.23,3.32-0.49,4.24-0.8v16.72c-1.99,0.3-4.47,0.61-7.45,0.92c-2.98,0.3-6.45,0.46-10.42,0.46
				c-9.93,0-17.26-1.72-21.99-5.15c-4.74-3.44-7.1-9.89-7.1-19.36v-76.74h-20.39V178.94z"/>
		</g>
	</g>
	<g>
		<path class="st1" d="M475,334.5c0-0.59,0-1.14,0-1.65c0-0.51-0.02-1.1-0.05-1.76c-0.04-0.66-0.07-1.43-0.11-2.31
			c-0.04-0.88-0.09-1.98-0.16-3.3h10.44l0.22,9.12c1.32-2.2,2.82-3.94,4.5-5.22c1.68-1.28,3.41-2.29,5.16-3.02
			c1.76-0.73,3.44-1.21,5.05-1.43c1.61-0.22,2.97-0.33,4.07-0.33c2.93,0,5.8,0.53,8.62,1.59c2.82,1.06,5.29,2.75,7.42,5.05
			c2.12,2.31,3.85,5.26,5.16,8.84c1.32,3.59,1.98,7.95,1.98,13.07c0,5.13-0.7,9.56-2.09,13.29c-1.39,3.74-3.24,6.81-5.55,9.23
			c-2.31,2.42-4.98,4.19-8.02,5.33c-3.04,1.14-6.21,1.7-9.5,1.7c-4.03,0-7.49-0.77-10.38-2.31c-2.89-1.54-5.07-3.52-6.54-5.93v27.36
			H475V334.5z M484.89,354.72c0,1.69,0.13,3.7,0.38,6.04c0.26,2.35,0.9,4.58,1.92,6.7c1.03,2.13,2.56,3.94,4.61,5.44
			c2.05,1.5,4.91,2.25,8.57,2.25c0.66,0,1.46-0.05,2.42-0.17c0.95-0.11,1.98-0.35,3.08-0.71c1.1-0.37,2.18-0.9,3.24-1.59
			c1.06-0.7,2.03-1.67,2.91-2.91c0.95-1.32,1.74-2.78,2.36-4.4c0.62-1.61,1.08-3.2,1.37-4.78c0.29-1.57,0.49-3.06,0.6-4.45
			c0.11-1.39,0.16-2.6,0.16-3.63c0-2.49-0.22-4.94-0.66-7.36c-0.44-2.42-1.23-4.58-2.36-6.48c-1.14-1.9-2.67-3.44-4.61-4.61
			c-1.94-1.17-4.45-1.76-7.53-1.76c-4.1,0-7.27,0.93-9.5,2.8c-2.24,1.87-3.86,4.05-4.89,6.54c-1.03,2.49-1.63,4.98-1.81,7.47
			C484.98,351.6,484.89,353.47,484.89,354.72z"/>
		<path class="st1" d="M541.47,301.54h12.42v11.32h-12.42V301.54z M542.57,325.49h10.33v55.16h-10.33V325.49z"/>
		<path class="st1" d="M568.94,353.73c0-3.37,0.44-6.81,1.32-10.33c0.88-3.52,2.4-6.7,4.56-9.56c2.16-2.86,5.04-5.2,8.63-7.03
			c3.59-1.83,8.09-2.75,13.51-2.75c5.49,0,10,0.97,13.51,2.91c3.52,1.94,6.28,4.36,8.3,7.25c2.01,2.89,3.39,6.03,4.12,9.39
			c0.73,3.37,1.1,6.48,1.1,9.34c0,4.03-0.57,7.84-1.7,11.43c-1.14,3.59-2.86,6.72-5.16,9.39c-2.31,2.68-5.22,4.8-8.73,6.37
			c-3.52,1.57-7.62,2.36-12.31,2.36c-4.54,0-8.52-0.75-11.92-2.25c-3.41-1.5-6.25-3.53-8.52-6.1c-2.27-2.56-3.96-5.6-5.05-9.12
			C569.49,361.53,568.94,357.76,568.94,353.73z M579.71,353.07c0,2.86,0.31,5.59,0.93,8.19c0.62,2.6,1.61,4.91,2.97,6.92
			c1.35,2.02,3.08,3.63,5.16,4.83c2.09,1.21,4.6,1.81,7.53,1.81c1.98,0,3.96-0.38,5.93-1.15c1.98-0.77,3.75-2.01,5.33-3.74
			c1.57-1.72,2.87-3.99,3.9-6.81c1.03-2.82,1.54-6.32,1.54-10.49c0-6.88-1.47-12.1-4.39-15.66c-2.93-3.55-6.81-5.33-11.65-5.33
			c-1.69,0-3.52,0.31-5.49,0.93c-1.98,0.62-3.85,1.72-5.6,3.3c-1.76,1.58-3.22,3.75-4.39,6.54
			C580.29,345.2,579.71,348.75,579.71,353.07z"/>
		<path class="st1" d="M640.47,331.86l-0.11-6.37h10.33l0.11,8.9c0.29-0.59,0.79-1.43,1.48-2.53c0.7-1.1,1.72-2.2,3.08-3.3
			c1.35-1.1,3.09-2.07,5.22-2.91c2.12-0.84,4.76-1.26,7.91-1.26c1.25,0,2.98,0.18,5.22,0.55c2.23,0.37,4.45,1.19,6.65,2.47
			c2.2,1.28,4.1,3.17,5.71,5.66c1.61,2.49,2.42,5.86,2.42,10.11v37.47h-10.55V345.6c0-1.83-0.18-3.55-0.55-5.16
			c-0.37-1.61-1.17-3.04-2.42-4.28c-1.32-1.25-2.84-2.18-4.56-2.8c-1.72-0.62-3.46-0.93-5.22-0.93c-1.91,0-3.72,0.33-5.44,0.99
			c-1.72,0.66-3.24,1.69-4.56,3.08c-1.32,1.39-2.38,3.11-3.19,5.16c-0.81,2.05-1.21,4.47-1.21,7.25v31.75h-10.33V331.86z"/>
		<path class="st1" d="M706.28,301.54h12.42v11.32h-12.42V301.54z M707.38,325.49h10.33v55.16h-10.33V325.49z"/>
		<path class="st1" d="M744.07,354.94c-0.07,2.86,0.18,5.49,0.77,7.91c0.59,2.42,1.52,4.52,2.8,6.32c1.28,1.8,2.93,3.19,4.94,4.18
			c2.01,0.99,4.45,1.48,7.31,1.48c3.37,0,6.26-0.92,8.68-2.75c2.42-1.83,3.85-4.72,4.29-8.68h10.33c-0.15,1.39-0.48,3.13-0.99,5.22
			c-0.51,2.09-1.76,4.19-3.74,6.32c-0.59,0.66-1.39,1.43-2.42,2.31c-1.03,0.88-2.31,1.69-3.85,2.42c-1.54,0.73-3.35,1.35-5.44,1.87
			c-2.09,0.51-4.52,0.77-7.31,0.77c-8.72,0-15.16-2.53-19.34-7.58c-4.18-5.05-6.26-11.94-6.26-20.66c0-5.42,0.73-10.34,2.2-14.78
			c1.46-4.43,4.36-8.15,8.68-11.15c1.32-0.95,2.69-1.68,4.12-2.2c1.43-0.51,2.82-0.92,4.18-1.21c1.35-0.29,2.62-0.48,3.79-0.55
			c1.17-0.07,2.16-0.11,2.97-0.11c4.1,0,7.56,0.55,10.38,1.65c2.82,1.1,5.11,2.55,6.87,4.34c1.76,1.8,3.11,3.81,4.07,6.04
			c0.95,2.24,1.63,4.5,2.03,6.81c0.4,2.31,0.6,4.52,0.6,6.65c0,2.13,0,3.92,0,5.38H744.07z M773.19,347.68
			c0-1.32-0.11-2.91-0.33-4.78c-0.22-1.87-0.79-3.64-1.7-5.33c-0.92-1.68-2.29-3.13-4.12-4.34c-1.83-1.21-4.32-1.81-7.47-1.81
			c-1.69,0-3.41,0.27-5.16,0.82c-1.76,0.55-3.35,1.47-4.78,2.75c-1.43,1.28-2.62,2.95-3.57,5c-0.95,2.05-1.47,4.61-1.54,7.69H773.19
			z"/>
		<path class="st1" d="M799.45,336.7c0-1.9-0.05-3.79-0.16-5.66c-0.11-1.87-0.24-3.72-0.39-5.55h10.44l0.22,10.66
			c0.51-1.9,1.26-3.52,2.25-4.83c0.99-1.32,2.1-2.4,3.35-3.24c1.25-0.84,2.53-1.48,3.85-1.92c1.32-0.44,2.56-0.73,3.74-0.88
			c1.54-0.22,2.89-0.33,4.07-0.33c1.17,0,2.2,0.04,3.08,0.11v10.11c-0.44-0.15-1.1-0.29-1.98-0.44c-0.37-0.07-0.81-0.11-1.32-0.11
			c-0.51,0-1.06,0-1.65,0c-3.08,0-5.59,0.42-7.53,1.26c-1.94,0.84-3.46,2.02-4.56,3.52c-1.1,1.5-1.87,3.28-2.31,5.33
			c-0.44,2.05-0.66,4.25-0.66,6.59v29.34h-10.44V336.7z"/>
		<path class="st1" d="M847.9,354.94c-0.07,2.86,0.18,5.49,0.77,7.91c0.59,2.42,1.52,4.52,2.8,6.32c1.28,1.8,2.93,3.19,4.94,4.18
			c2.01,0.99,4.45,1.48,7.31,1.48c3.37,0,6.26-0.92,8.68-2.75c2.42-1.83,3.85-4.72,4.29-8.68h10.33c-0.15,1.39-0.48,3.13-0.99,5.22
			c-0.51,2.09-1.76,4.19-3.74,6.32c-0.59,0.66-1.39,1.43-2.42,2.31c-1.03,0.88-2.31,1.69-3.85,2.42c-1.54,0.73-3.35,1.35-5.44,1.87
			c-2.09,0.51-4.52,0.77-7.31,0.77c-8.72,0-15.16-2.53-19.34-7.58c-4.18-5.05-6.26-11.94-6.26-20.66c0-5.42,0.73-10.34,2.2-14.78
			c1.46-4.43,4.36-8.15,8.68-11.15c1.32-0.95,2.69-1.68,4.12-2.2c1.43-0.51,2.82-0.92,4.18-1.21c1.35-0.29,2.62-0.48,3.79-0.55
			c1.17-0.07,2.16-0.11,2.97-0.11c4.1,0,7.56,0.55,10.38,1.65c2.82,1.1,5.11,2.55,6.87,4.34c1.76,1.8,3.11,3.81,4.07,6.04
			c0.95,2.24,1.63,4.5,2.03,6.81c0.4,2.31,0.6,4.52,0.6,6.65c0,2.13,0,3.92,0,5.38H847.9z M877.02,347.68
			c0-1.32-0.11-2.91-0.33-4.78c-0.22-1.87-0.79-3.64-1.7-5.33c-0.92-1.68-2.29-3.13-4.12-4.34c-1.83-1.21-4.32-1.81-7.47-1.81
			c-1.69,0-3.41,0.27-5.16,0.82c-1.76,0.55-3.35,1.47-4.78,2.75c-1.43,1.28-2.62,2.95-3.57,5c-0.95,2.05-1.47,4.61-1.54,7.69H877.02
			z"/>
	</g>
</g>
</svg>
