<?xml version="1.0" encoding="utf-8"?>
<!-- Generator: Adobe Illustrator 23.0.2, SVG Export Plug-In . SVG Version: 6.00 Build 0)  -->
<svg version="1.1" id="Layer_1" xmlns="http://www.w3.org/2000/svg" xmlns:xlink="http://www.w3.org/1999/xlink" x="0px" y="0px"
	 viewBox="0 0 950.91 344" style="enable-background:new 0 0 950.91 344;" xml:space="preserve">
<g>
	<path id="path16" d="M389.73,154.34c-3.7-8.12-9.55-16.87-21.64-16.55c-23.39,0-27.88,21.01-27.88,35.97
		c0,14.96,4.48,35.97,27.88,35.97c13.06-0.48,20.47-9.07,25.15-17.67l12.28,4.46c-6.24,13.37-20.08,23.72-37.43,23.72
		c-23.98,0-43.08-13.53-43.08-46.47s19.1-46.47,43.08-46.47c17.74,0,28.66,9.07,34.5,22.28L389.73,154.34z"/>
	<path id="path18" d="M480.37,217.69l-1.56-11.14c-8.77,7-18.52,13.69-31.19,13.69c-16.57,0-29.83-11.3-29.83-25.15
		c0-25.15,32.36-30.56,56.14-35.81l4.87-1.11v-4.93c0-10.03-8.38-15.44-20.47-15.44c-11.89,0-20.08,6.37-26.32,13.85l-10.72-6.53
		c8.97-10.5,20.66-17.82,37.04-17.82c14.62,0,35.67,7.32,35.67,27.37v43.61c0.2,6.53-0.2,13.21,2.92,19.42H480.37 M472.77,169.78
		c-14.42,3.5-40.74,8.28-40.74,24.03c0,7.32,7.02,14.64,16.18,14.64c12.09,0,23.2-6.85,30.6-14.33v-25.78L472.77,169.78z"/>
	<path id="path20" d="M572,149.41c-6.04-7.32-13.26-11.62-24.56-11.62c-9.94,0-19.3,4.14-19.3,13.05c0,21.49,56.73,12.1,56.73,41.7
		c0,17.19-15.01,27.69-35.28,27.69c-17.35,0-31.39-6.21-40.16-18.46l12.09-6.21c5.85,9.07,15.2,14.16,28.07,14.16
		c11.11,0,21.05-4.93,21.05-14.96c0-22.12-56.73-11.62-56.73-43.13c0-15.12,15.2-24.35,32.94-24.35c15.01,0,27.49,5.09,35.87,15.28
		L572,149.41z"/>
	<path id="path22" d="M621.12,129.83h24.37v10.5h-24.37v55.23c0,8.59-0.2,14.16,12.28,14.16c4.29,0,8.38-0.32,12.09-1.11v9.07
		c-4.87,1.43-9.94,2.55-15.21,2.55c-25.73,0-24.37-14.17-24.37-30.24v-49.66h-16.37v-10.5h16.37v-28.49h15.21V129.83z"/>
	<path id="path24" d="M666.15,175.83c0,25.15,13.06,33.9,28.66,33.9c11.31,0,20.86-7.48,26.32-15.12l10.92,5.89
		c-5.85,11.3-20.27,19.74-38.79,19.74c-23.98,0-43.08-13.53-43.08-46.47s19.1-46.47,43.08-46.47c30.99,0,39.96,27.06,37.82,48.54
		H666.15 M715.08,165.32c0.39-11.3-7.02-27.53-23-27.53c-17.15,0-25.34,15.12-25.54,27.53H715.08z"/>
	<path id="path26" d="M762.45,148.77h0.39c6.04-10.5,13.84-20.21,29.82-20.21h5.85v11.3c-19.89-2.23-30.21,15.28-36.06,28.01v49.81
		h-15.2v-87.85h15.2L762.45,148.77z"/>
	<path id="path28" d="M36.27,137.31c8.19-5.89,15.2-10.66,26.9-10.66c15.79,0,39.96,11.3,39.96,44.24c0,37.56-20.27,48.7-42.3,48.7
		c-9.16,0-16.57-3.34-24.56-8.28v74.46H7.42V128.56h28.85V137.31 M36.27,191.74c4.48,5.57,10.14,10.5,18.71,10.5
		c17.35,0,19.88-17.51,19.88-28.17c0-9.87-3.31-26.42-19.3-26.42c-8.38,0-14.23,4.77-19.3,9.71V191.74z"/>
	<path id="path30" d="M112.5,173.12c0-23.71,15.99-46.47,47.95-46.47c31.97,0,47.96,22.76,47.96,46.47
		c0,23.56-16.18,46.47-47.96,46.47C128.68,219.6,112.5,196.68,112.5,173.12 M178.77,173.12c0-11.14-2.73-29.12-18.32-29.12
		c-15.59,0-18.32,17.98-18.32,29.12c0,11.14,2.73,29.12,18.32,29.12C176.04,202.25,178.77,184.26,178.77,173.12z"/>
	<path id="path32" d="M287.74,210.21c-8.77,6.37-15.6,9.39-27.68,9.39c-22.03,0-42.3-11.14-42.3-48.7
		c0-32.95,24.17-44.24,39.96-44.24c11.7,0,18.71,4.77,26.9,10.66V52.4h28.85v165.29h-23.2L287.74,210.21 M265.33,145.27
		c-15.99,0-19.3,16.55-19.3,26.42c0,10.66,2.53,27.85,19.88,27.85c8.58,0,14.23-4.61,18.71-10.19v-34.38
		C279.56,150.05,273.71,145.27,265.33,145.27L265.33,145.27z"/>
	<path id="path34" d="M792.99,219.92h-14.77v-13.97h14.77V219.92z"/>
	<path id="path36" d="M859.25,127.02h11.41v92.9h-11.41v-7.52c-5.41,5.49-11.7,9.43-20.63,9.43c-10.97,0-29.54-8.24-29.54-33.56
		c0-25.91,16.09-36.18,29.99-36.18c7.75,0,14.92,4.18,20.18,8.72L859.25,127.02 M859.25,170.84c-3.51-5.73-10.09-10.63-18.87-10.63
		c-15.94,0-19.3,17.91-19.3,27.82c0,19.35,11.26,25.67,19.16,25.67c8.05,0,15.8-6.69,19.02-12.3V170.84z"/>
	<path id="path38" d="M894.05,188.51c0,18.87,9.8,25.43,21.5,25.43c8.48,0,15.65-5.61,19.75-11.34l8.19,4.42
		c-4.39,8.48-15.21,14.81-29.1,14.81c-17.99,0-32.32-10.15-32.32-34.87c0-24.72,14.33-34.87,32.32-34.87
		c23.25,0,29.98,20.3,28.37,36.42H894.05 M930.77,180.63c0.29-8.48-5.27-20.66-17.26-20.66c-12.87,0-19.01,11.34-19.16,20.66H930.77
		z"/>
	<path id="path40" d="M157.1,86.24c17.95,0,34.62,5.55,48.41,15.02l18.32-14.56c-18.41-14.43-41.57-23.07-66.72-23.07
		c-34.24,0-64.81,15.98-84.68,40.86l19.56,11.82C107.72,97.92,131.06,86.24,157.1,86.24 M246.73,232.84l-20.12-10.71
		c-15.59,21.56-40.93,35.63-69.51,35.63c-19.79,0-38.02-6.75-52.54-18.06l-17.65,14.77c18.92,16.13,43.43,25.9,70.19,25.9
		C194.32,280.37,227.21,261.5,246.73,232.84 M269.27,244.83c-23.89,36.67-65.23,60.99-112.17,60.99
		c-34.59,0-66.16-13.19-89.94-34.82l-23.25,19.46c29.46,28.16,69.32,45.51,113.19,45.51c58.45,0,109.83-30.77,138.87-76.94
		L269.27,244.83 M157.1,38.18c33.23,0,63.65,12.2,87.07,32.33l23.95-19.05C238.9,24.52,199.89,8.03,157.1,8.03
		c-54.4,0-102.67,26.65-132.51,67.56l25.91,15.65C74.95,59.03,113.63,38.18,157.1,38.18L157.1,38.18z"/>
</g>
</svg>
